<?xml version="1.0" ?><!DOCTYPE svg  PUBLIC '-//W3C//DTD SVG 1.1//EN'  'http://www.w3.org/Graphics/SVG/1.1/DTD/svg11.dtd'><svg height="1.70667in" style="shape-rendering:geometricPrecision; text-rendering:geometricPrecision; image-rendering:optimizeQuality; fill-rule:evenodd; clip-rule:evenodd" version="1.1" viewBox="0 0 7630 7630" width="1.70667in" xml:space="preserve" xmlns="http://www.w3.org/2000/svg" xmlns:xlink="http://www.w3.org/1999/xlink"><defs><style type="text/css">
   <![CDATA[
    .fil0 {fill:none}
    .fil1 {fill:white;fill-rule:nonzero}
   ]]>
  </style></defs><g id="Layer_x0020_1"><rect class="fil0" height="7630" width="7630"/><g id="_799082544"><path class="fil1" d="M5270 4596c0,377 -306,683 -683,683l-1544 0c-377,0 -684,-306 -684,-683l0 -1544c0,-378 307,-684 684,-684l1544 0c377,0 683,306 683,684l0 1544zm-701 -2565l-1508 0c-569,0 -1030,461 -1030,1030l0 1508c0,569 461,1030 1030,1030l1508 0c569,0 1030,-461 1030,-1030l0 -1508c0,-569 -461,-1030 -1030,-1030z"/><path class="fil1" d="M3815 4424c-332,0 -600,-269 -600,-600 0,-332 268,-600 600,-600 331,0 600,268 600,600 0,331 -269,600 -600,600zm0 -1526c-512,0 -926,414 -926,926 0,511 414,926 926,926 511,0 926,-415 926,-926 0,-512 -415,-926 -926,-926z"/><path class="fil1" d="M4772 2647c-119,0 -216,97 -216,216 0,119 97,215 216,215 119,0 215,-96 215,-215 0,-119 -96,-216 -215,-216z"/></g></g></svg>