<?xml version="1.0" ?><!DOCTYPE svg  PUBLIC '-//W3C//DTD SVG 1.1//EN'  'http://www.w3.org/Graphics/SVG/1.1/DTD/svg11.dtd'><svg height="1.70667in" style="shape-rendering:geometricPrecision; text-rendering:geometricPrecision; image-rendering:optimizeQuality; fill-rule:evenodd; clip-rule:evenodd" version="1.1" viewBox="0 0 9291 9291" width="1.70667in" xml:space="preserve" xmlns="http://www.w3.org/2000/svg" xmlns:xlink="http://www.w3.org/1999/xlink"><defs><style type="text/css">
   <![CDATA[
    .fil0 {fill:none}
    .fil1 {fill:white;fill-rule:nonzero}
   ]]>
  </style></defs><g id="Layer_x0020_1"><rect class="fil0" height="9291" width="9291"/><path class="fil1" d="M6852 3277c-162,72 -336,120 -520,142 188,-112 331,-289 399,-501 -178,106 -373,180 -576,220 -165,-176 -400,-286 -660,-286 -500,0 -906,405 -906,906 0,70 8,140 24,206 -753,-38 -1420,-398 -1867,-946 -78,134 -122,289 -122,455 0,314 160,592 403,754 -144,-5 -285,-43 -411,-113l0 11c0,439 312,805 727,888 -77,21 -156,32 -239,32 -58,0 -115,-6 -170,-16 115,359 449,621 846,628 -311,243 -701,388 -1125,388 -73,0 -145,-4 -216,-13 401,257 877,407 1388,407 1665,0 2576,-1380 2576,-2576 0,-39 -1,-78 -3,-117 178,-128 331,-287 452,-469z"/></g></svg>