<?xml version="1.0" encoding="UTF-8"?>
<!DOCTYPE svg PUBLIC "-//W3C//DTD SVG 1.1//EN" "http://www.w3.org/Graphics/SVG/1.1/DTD/svg11.dtd">
<!-- Creator: CorelDRAW X7 -->
<svg xmlns="http://www.w3.org/2000/svg" xml:space="preserve" width="52.9895mm" height="28.7265mm" version="1.1" style="shape-rendering:geometricPrecision; text-rendering:geometricPrecision; image-rendering:optimizeQuality; fill-rule:evenodd; clip-rule:evenodd"
viewBox="0 0 990 537"
 xmlns:xlink="http://www.w3.org/1999/xlink">
 <defs>
  <style type="text/css">
   <![CDATA[
    .fil1 {fill:none}
    .fil0 {fill:rgba (255,0,0, 0.5)}
   ]]>
  </style>
    <clipPath id="id0">
     <path d="M0 0l990 0 0 537 -990 0 0 -537z"/>
    </clipPath>
 </defs>
 <g id="Header">
  <metadata id="CorelCorpID_0Corel-Layer"/>
  <g id="_2456807822656">
   <g>
   </g>
   <g style="clip-path:url(#id0)">
    <g id="_2456807821600">
     <g>
      <path class="fil0" d="M977 1026c138,0 263,-56 354,-147 90,-90 146,-215 146,-354 0,-138 -56,-263 -146,-354 -91,-90 -216,-146 -354,-146 -138,0 -264,56 -354,146 -91,91 -147,216 -147,354 0,139 56,264 147,354 90,91 216,147 354,147zm0 20c287,0 521,-233 521,-521 0,-287 -234,-521 -521,-521 -288,0 -521,234 -521,521 0,288 233,521 521,521z"/>
      <path class="fil0" d="M977 995c259,0 470,-210 470,-470 0,-259 -211,-470 -470,-470 -260,0 -470,211 -470,470 0,260 210,470 470,470zm0 -706c55,0 100,-44 100,-100 0,-55 -45,-100 -100,-100 -56,0 -100,45 -100,100 0,56 44,100 100,100zm234 235c0,55 45,100 100,100 55,0 100,-45 100,-100 0,-56 -45,-100 -100,-100 -55,0 -100,44 -100,100zm-69 -166c39,39 103,39 142,0 39,-39 39,-102 0,-142 -39,-39 -103,-39 -142,0 -39,40 -39,103 0,142zm-331 0c39,-39 39,-102 0,-141 -39,-40 -102,-40 -141,0 -39,39 -39,102 0,141 39,39 102,39 141,0zm166 600c55,0 100,-45 100,-100 0,-55 -45,-100 -100,-100 -56,0 -100,45 -100,100 0,55 44,100 100,100zm-435 -434c0,55 45,100 101,100 55,0 100,-45 100,-100 0,-56 -45,-100 -100,-100 -56,0 -101,44 -101,100zm128 307c39,39 102,39 141,0 39,-39 39,-103 0,-142 -39,-39 -102,-39 -141,0 -39,39 -39,103 0,142zm614 0c39,-39 39,-103 0,-142 -39,-39 -103,-39 -142,0 -39,39 -39,103 0,142 39,39 103,39 142,0zm-307 -206c55,0 100,-44 100,-100 0,-55 -45,-100 -100,-100 -56,0 -100,45 -100,100 0,56 44,100 100,100zm0 -30c38,0 70,-31 70,-70 0,-38 -32,-70 -70,-70 -39,0 -70,32 -70,70 0,39 31,70 70,70z"/>
     </g>
    </g>
   </g>
   <polygon class="fil1" points="0,0 990,0 990,537 0,537 "/>
   <path class="fil0" d="M0 68l0 -68 6 0 0 27c3,-3 6,-5 9,-7 3,-1 7,-2 11,-2 7,0 13,2 18,7 5,5 7,11 7,19 0,7 -2,13 -7,18 -5,5 -11,7 -18,7 -4,0 -8,-1 -11,-2 -3,-2 -6,-5 -9,-8l0 9 -6 0zm25 -5c4,0 7,-1 10,-3 3,-1 5,-4 7,-7 2,-3 3,-6 3,-10 0,-3 -1,-6 -3,-10 -2,-3 -4,-5 -7,-7 -3,-2 -6,-2 -10,-2 -3,0 -6,0 -9,2 -4,2 -6,4 -8,7 -1,3 -2,6 -2,10 0,6 2,11 6,14 3,4 8,6 13,6zm35 -44l7 0 0 7c1,-3 3,-5 6,-6 2,-2 4,-2 6,-2 2,0 4,0 6,1l-3 6c-2,-1 -3,-1 -4,-1 -2,0 -4,1 -6,2 -2,2 -3,5 -4,8 -1,3 -1,9 -1,17l0 17 -7 0 0 -49zm53 -1c8,0 14,2 19,8 5,5 7,11 7,18 0,6 -2,12 -7,17 -5,6 -11,8 -19,8 -7,0 -13,-2 -18,-8 -5,-5 -7,-11 -7,-17 0,-7 2,-13 7,-18 5,-6 11,-8 18,-8zm0 6c-5,0 -9,2 -13,6 -4,4 -6,8 -6,14 0,3 1,7 3,10 2,3 4,5 7,7 3,1 6,2 9,2 4,0 7,-1 10,-2 3,-2 5,-4 7,-7 2,-3 3,-7 3,-10 0,-6 -2,-10 -6,-14 -4,-4 -8,-6 -14,-6zm61 -6c7,0 14,2 19,8 4,5 6,11 6,18 0,6 -2,12 -7,17 -4,6 -11,8 -18,8 -8,0 -14,-2 -19,-8 -4,-5 -7,-11 -7,-17 0,-7 3,-13 7,-18 5,-6 11,-8 19,-8zm0 6c-5,0 -10,2 -14,6 -3,4 -5,8 -5,14 0,3 1,7 2,10 2,3 4,5 7,7 3,1 6,2 10,2 3,0 7,-1 9,-2 3,-2 6,-4 7,-7 2,-3 3,-7 3,-10 0,-6 -2,-10 -6,-14 -3,-4 -8,-6 -13,-6zm37 -24l6 0 0 39 23 -20 9 0 -27 23 29 26 -9 0 -25 -22 0 22 -6 0 0 -68zm45 0l7 0 0 68 -7 0 0 -68zm15 19l6 0 17 37 16 -37 7 0 -29 67 -7 0 10 -22 -20 -45zm54 0l7 0 0 9c2,-4 5,-6 8,-8 3,-1 6,-2 10,-2 4,0 7,1 10,3 3,1 5,4 6,7 1,3 2,8 2,15l0 25 -6 0 0 -23c0,-6 0,-10 -1,-12 -1,-3 -2,-5 -4,-7 -2,-2 -5,-2 -8,-2 -4,0 -7,1 -10,3 -4,3 -6,6 -6,10 -1,2 -1,7 -1,13l0 18 -7 0 0 -49z"/>
   <path class="fil0" d="M26 128c8,0 15,3 20,8 5,6 7,12 7,19 0,7 -3,13 -8,18 -4,5 -11,8 -19,8 -7,0 -14,-3 -19,-8 -5,-5 -7,-11 -7,-18 0,-7 2,-13 7,-18 5,-6 12,-9 19,-9zm0 6c-5,0 -10,2 -14,6 -3,4 -5,9 -5,15 0,3 1,7 2,10 2,3 4,6 8,7 3,2 6,3 9,3 4,0 7,-1 10,-3 3,-1 6,-4 8,-7 1,-3 2,-7 2,-10 0,-6 -2,-11 -6,-15 -4,-4 -8,-6 -14,-6zm38 -5l6 0 0 24c0,6 1,10 1,12 1,3 3,5 6,7 2,2 6,3 9,3 4,0 7,-1 9,-3 3,-2 5,-4 6,-7 0,-2 1,-6 1,-12l0 -24 6 0 0 25c0,7 -1,12 -2,16 -2,3 -4,6 -8,8 -3,2 -7,3 -12,3 -5,0 -9,-1 -12,-3 -3,-2 -6,-5 -8,-8 -1,-4 -2,-9 -2,-16l0 -25zm64 -19l7 0 0 19 10 0 0 6 -10 0 0 45 -7 0 0 -45 -8 0 0 -6 8 0 0 -19zm78 0l0 70 -7 0 0 -9c-3,3 -6,6 -9,8 -4,1 -7,2 -11,2 -7,0 -14,-2 -19,-8 -5,-5 -7,-11 -7,-19 0,-7 2,-13 7,-18 6,-5 12,-8 19,-8 4,0 8,1 11,3 4,1 6,4 9,8l0 -29 7 0zm-27 24c-3,0 -7,1 -10,3 -3,2 -5,4 -7,7 -2,4 -3,7 -3,11 0,3 1,7 3,10 2,3 4,6 7,7 4,2 7,3 10,3 4,0 7,-1 10,-3 4,-1 6,-4 8,-7 2,-3 2,-6 2,-10 0,-6 -2,-11 -5,-15 -4,-4 -9,-6 -15,-6zm65 -6c8,0 15,3 20,8 4,6 7,12 7,19 0,7 -3,13 -8,18 -5,5 -11,8 -19,8 -8,0 -14,-3 -19,-8 -5,-5 -7,-11 -7,-18 0,-7 2,-13 7,-18 5,-6 11,-9 19,-9zm0 6c-5,0 -10,2 -14,6 -4,4 -6,9 -6,15 0,3 1,7 3,10 2,3 4,6 7,7 3,2 7,3 10,3 4,0 7,-1 10,-3 3,-1 6,-4 7,-7 2,-3 3,-7 3,-10 0,-6 -2,-11 -6,-15 -4,-4 -8,-6 -14,-6zm63 -6c7,0 14,3 19,8 5,6 7,12 7,19 0,7 -2,13 -7,18 -5,5 -12,8 -19,8 -8,0 -15,-3 -19,-8 -5,-5 -8,-11 -8,-18 0,-7 3,-13 7,-18 5,-6 12,-9 20,-9zm0 6c-6,0 -10,2 -14,6 -4,4 -6,9 -6,15 0,3 1,7 2,10 2,3 5,6 8,7 3,2 6,3 10,3 3,0 7,-1 10,-3 3,-1 5,-4 7,-7 1,-3 2,-7 2,-10 0,-6 -2,-11 -5,-15 -4,-4 -9,-6 -14,-6zm36 -5l6 0 0 8c2,-3 4,-5 6,-7 3,-1 5,-2 7,-2 2,0 4,1 6,2l-3 5c-2,0 -3,-1 -4,-1 -2,0 -4,1 -6,3 -2,2 -4,5 -5,8 0,3 -1,9 -1,18l0 17 -6 0 0 -51z"/>
   <path class="fil0" d="M92 258l-17 0c-2,-11 -9,-17 -20,-17 -5,0 -9,1 -12,4 -3,2 -6,5 -7,8 -2,4 -2,10 -2,20l0 5 27 0 0 15 -27 0 0 114 -17 0 0 -114 -17 0 0 -15 17 0 0 -5c0,-13 1,-22 4,-28 3,-6 7,-10 13,-14 6,-4 13,-5 21,-5 11,0 19,3 26,8 7,6 10,14 11,24zm-17 20l17 0 0 129 -17 0 0 -129zm49 -49l17 0 0 178 -17 0 0 -178zm51 49l17 0 0 23c6,-8 12,-14 18,-18 8,-5 17,-8 26,-8 6,0 12,2 18,4 6,2 10,6 14,10 3,4 6,10 9,17 5,-10 12,-18 21,-23 8,-5 17,-8 26,-8 9,0 17,3 24,7 7,5 12,11 15,19 4,8 5,20 5,36l0 70 -17 0 0 -70c0,-14 -1,-23 -3,-28 -2,-6 -5,-10 -10,-13 -5,-3 -10,-5 -17,-5 -8,0 -15,3 -22,7 -7,5 -12,12 -15,19 -3,8 -4,21 -4,40l0 50 -17 0 0 -66c0,-15 -1,-26 -3,-31 -2,-6 -5,-10 -10,-14 -5,-3 -10,-5 -17,-5 -8,0 -15,3 -22,7 -6,5 -11,11 -14,19 -4,8 -5,20 -5,36l0 54 -17 0 0 -129z"/>
   <path class="fil0" d="M29 451l0 8c-3,-1 -5,-2 -7,-2 -2,0 -3,0 -4,1 -1,0 -2,1 -2,2 0,1 0,3 0,6l0 9 13 0 0 6 -13 0 0 54 -8 0 0 -54 -8 0 0 -6 8 0 0 -10c0,-4 0,-7 1,-9 1,-2 2,-4 4,-5 2,-1 5,-1 7,-1 3,0 6,0 9,1zm62 64l7 4c-2,4 -5,7 -8,10 -2,2 -6,4 -9,6 -4,1 -8,2 -12,2 -10,0 -18,-4 -23,-10 -6,-7 -9,-14 -9,-22 0,-8 3,-14 7,-20 6,-8 14,-12 24,-12 11,0 19,4 25,12 5,5 7,12 7,20l-55 0c0,8 3,13 7,18 4,4 10,6 16,6 3,0 6,0 9,-1 3,-1 6,-3 8,-4 2,-2 4,-5 6,-9zm0 -16c-1,-4 -2,-8 -4,-10 -2,-3 -5,-5 -8,-6 -3,-2 -7,-3 -11,-3 -6,0 -11,2 -15,6 -3,3 -5,7 -7,13l45 0zm54 -18l-5 5c-4,-4 -8,-6 -12,-6 -3,0 -5,1 -7,3 -2,1 -3,3 -3,6 0,2 1,3 3,5 1,2 4,4 9,7 6,3 10,6 12,8 2,3 3,6 3,10 0,5 -2,9 -5,13 -4,3 -8,5 -13,5 -4,0 -7,-1 -10,-3 -4,-1 -6,-3 -8,-6l5 -5c3,4 8,6 12,6 3,0 6,-1 8,-3 2,-2 4,-4 4,-7 0,-2 -1,-4 -3,-6 -1,-1 -4,-4 -10,-6 -5,-3 -9,-6 -11,-9 -2,-2 -3,-5 -3,-9 0,-5 2,-8 5,-11 3,-3 7,-5 12,-5 6,0 11,3 17,8zm20 -29l8 0 0 23 12 0 0 6 -12 0 0 54 -8 0 0 -54 -10 0 0 -6 10 0 0 -23zm35 -2c2,0 3,0 5,2 1,1 1,2 1,4 0,2 0,3 -1,5 -2,1 -3,2 -5,2 -2,0 -3,-1 -4,-2 -2,-2 -2,-3 -2,-5 0,-2 0,-3 2,-4 1,-2 2,-2 4,-2zm-4 25l8 0 0 60 -8 0 0 -60zm19 0l8 0 20 44 20 -44 9 0 -28 60 -2 0 -27 -60zm129 0l0 60 -8 0 0 -10c-3,4 -7,7 -11,9 -4,2 -8,3 -13,3 -9,0 -16,-3 -22,-10 -6,-6 -9,-13 -9,-22 0,-9 3,-16 9,-23 6,-6 13,-9 22,-9 5,0 10,1 14,3 4,2 7,5 10,10l0 -11 8 0zm-31 6c-5,0 -9,1 -12,3 -4,2 -7,5 -9,9 -2,4 -3,8 -3,12 0,4 1,8 3,12 2,4 5,7 9,9 3,2 7,3 12,3 4,0 8,-1 12,-3 4,-2 6,-5 9,-8 2,-4 3,-8 3,-13 0,-7 -3,-13 -7,-17 -5,-5 -11,-7 -17,-7zm47 -30l8 0 0 84 -8 0 0 -84z"/>
  </g>
 </g>
</svg>
